<svg width="68" height="80" viewBox="0 0 68 80" fill="none" xmlns="http://www.w3.org/2000/svg">
<g id="Group">
<path id="Vector" fill-rule="evenodd" clip-rule="evenodd" d="M34.0634 51.4754L26.3662 44.4422L32.7335 10.6124L26.4992 4.51601L34.0634 0L41.6222 4.51601L35.3889 10.6124L41.7553 44.4422L34.0634 51.4754Z" fill="#F4F3F0"/>
<path id="Vector_2" fill-rule="evenodd" clip-rule="evenodd" d="M46.3987 69.78C38.1716 76.549 34.0634 80 34.0634 80C-6.40261 50.2833 -10.2511 25.4747 22.3862 5.57608C-0.698913 22.1566 7.2627 43.5142 46.3987 69.78Z" fill="#F4F3F0"/>
<path id="Vector_3" fill-rule="evenodd" clip-rule="evenodd" d="M5.93715 52.1384C14.1634 65.2738 23.0482 68.454 32.8655 61.6907C33.9265 60.8956 35.1234 59.9628 36.0514 59.1677C62.4493 37.6771 65.6352 19.8996 45.6038 5.57608C78.2358 25.4747 74.3925 50.2833 34.0633 80C20.6626 70.1827 11.2433 60.8956 5.93715 52.1384Z" fill="#F4F3F0"/>
</g>
</svg>
